<svg xmlns="http://www.w3.org/2000/svg" viewBox="0 0 207.28 58.79"><path fill="#ffffff" d="M56.8 13.9v-.07c0-6.53 4.88-11.95 11.55-11.95a12.07 12.07 0 0 1 8.49 3.24 1 1 0 0 1 .33.69.91.91 0 0 1-.89.86.92.92 0 0 1-.6-.23 10.3 10.3 0 0 0-7.36-3c-5.55 0-9.74 4.53-9.74 10.34v.06c0 5.85 4.26 10.41 9.77 10.41A10.18 10.18 0 0 0 75.88 21a.84.84 0 0 1 .6-.26.86.86 0 0 1 .82.82.84.84 0 0 1-.26.6 12 12 0 0 1-8.75 3.6c-6.61.03-11.49-5.22-11.49-11.86zM85.52 3.14a.87.87 0 0 1 .86-.86h8.85a9.11 9.11 0 0 1 6.51 2.28 6.09 6.09 0 0 1 1.75 4.29v.06c0 3.87-2.88 6.08-6.77 6.61l6.57 8.48a1 1 0 0 1 .26.59.88.88 0 0 1-1.65.43l-7.1-9.24h-7.56v8.85a.86.86 0 0 1-1.72 0zM95 14.26c3.87 0 6.74-1.94 6.74-5.28v-.07c0-3.1-2.44-5.05-6.64-5.05h-7.86v10.4zM119.14 16.25l-9-12.72A1.16 1.16 0 0 1 110 3a.89.89 0 0 1 1.68-.36l8.39 12 8.42-12a1 1 0 0 1 .76-.49.89.89 0 0 1 .86.82 1.23 1.23 0 0 1-.27.66l-8.94 12.58v8.46a.86.86 0 0 1-1.72 0zM138.06 3.14a.87.87 0 0 1 .86-.86h7.53c5.09 0 8.59 2.61 8.59 7.06v.07c0 4.85-4.2 7.36-9 7.36h-6.24v7.9a.86.86 0 0 1-1.72 0zm8.06 12c4.29 0 7.2-2.25 7.2-5.68v-.02c0-3.66-2.84-5.58-7-5.58h-6.54v11.33zM169.05 3.86h-7.4a.79.79 0 1 1 0-1.58h16.51a.79.79 0 0 1 0 1.58h-7.4v20.81a.86.86 0 0 1-1.71 0zM184 13.9v-.07c0-6.3 4.66-11.95 11.66-11.95s11.59 5.58 11.59 11.89v.06c0 6.31-4.66 12-11.66 12S184 20.21 184 13.9zm21.47 0v-.07c0-5.71-4.17-10.4-9.88-10.4s-9.8 4.63-9.8 10.34v.06c0 5.72 4.16 10.41 9.87 10.41s9.84-4.63 9.84-10.34zM60.32 36.14A2.62 2.62 0 0 1 63 33.5h7.14c5.71 0 9.16 3.39 9.16 8.27v.07c0 5.54-4.31 8.41-9.67 8.41h-4V55a2.63 2.63 0 1 1-5.26 0zm9.43 9.42c2.63 0 4.17-1.57 4.17-3.62v-.06c0-2.36-1.64-3.63-4.27-3.63h-4.07v7.31zM86.54 36.14a2.62 2.62 0 0 1 2.63-2.64h8.3c3 0 5.4.86 7 2.43a7.51 7.51 0 0 1 2 5.47v.06a7.3 7.3 0 0 1-4.78 7.28l3.65 4.44a3.1 3.1 0 0 1 .86 2 2.45 2.45 0 0 1-2.5 2.43 3.16 3.16 0 0 1-2.59-1.37L96 49.77h-4.2V55a2.63 2.63 0 1 1-5.26 0zm10.59 9c2.56 0 4-1.37 4-3.38v-.07c0-2.25-1.57-3.42-4.13-3.42h-5.2v6.87zM113.39 45.53v-.07a12.72 12.72 0 0 1 25.42-.07v.07a12.36 12.36 0 0 1-12.74 12.37c-7.38 0-12.68-5.5-12.68-12.3zm19.92 0v-.07a7.26 7.26 0 0 0-7.24-7.46 7.15 7.15 0 0 0-7.18 7.44v.07a7.27 7.27 0 0 0 7.24 7.49 7.16 7.16 0 0 0 7.18-7.47zM146.91 36.14a2.62 2.62 0 0 1 2.63-2.64h13.39a2.4 2.4 0 1 1 0 4.79h-10.76v5.09h9.23a2.39 2.39 0 0 1 0 4.78h-9.23V55a2.63 2.63 0 1 1-5.26 0zM172.39 35.93a2.63 2.63 0 1 1 5.26 0V55a2.63 2.63 0 1 1-5.26 0zM192.05 38.36H187a2.43 2.43 0 0 1 0-4.86h15.38a2.43 2.43 0 0 1 0 4.86h-5.06V55a2.63 2.63 0 1 1-5.26 0z"></path><path d="M27.9 56.47L48.63 5.1A3.71 3.71 0 0 0 45.19 0H3.72A3.71 3.71 0 0 0 .27 5.1L21 56.47a3.71 3.71 0 0 0 6.9 0z" fill="#27dda6"></path><path fill="#ffffff" d="M22.45 39.5l-5.68-16h15.36l-5.68 16h-4z"></path></svg>